#!OML:ASF F:\VICON\USERDATA\INSTALL\rory3\rory3.ASF
:FULLY-SPECIFIED
:DEGREES
1861
root 15.4678 18.008 1.38964 721.655 -191.594 364.948
lowerback 10.8308 1.5916 5.35314
upperback 0.587129 3.05151 2.06391
thorax -5.30378 1.46619 -1.31446
lowerneck -18.9882 -4.82062 -9.44535
upperneck 33.2278 -3.47768 4.82886
head 15.0787 -1.30712 3.20608
rclavicle -2.16675e-014 2.5842e-014
rhumerus -25.7514 -3.11732 -78.0818
rradius 32.7463
rwrist 3.31531
rhand -16.4733 8.21852
rfingers 7.12502
rthumb 9.74357 -21.5361
lclavicle -2.16675e-014 2.5842e-014
lhumerus -36.1338 4.42338 85.4765
lradius 32.271
lwrist -6.54257
lhand -17.2709 24.5658
lfingers 7.12502
lthumb 8.97395 54.355
rfemur 4.21501 -5.8974 26.3659
rtibia 16.2594
rfoot -15.0855 -2.04006
rtoes -7.24749
lfemur -24.2179 -0.350085 -17.1575
ltibia 19.6486
lfoot -9.08034 12.4393
ltoes -8.83175
1862
root 15.4863 17.9906 1.27864 721.795 -191.375 365.069
lowerback 10.6375 1.58912 5.45931
upperback 0.555436 3.05307 2.12086
thorax -5.22688 1.46746 -1.30733
lowerneck -18.8985 -4.78801 -9.42171
upperneck 33.1407 -3.44521 4.82096
head 15.013 -1.2913 3.20149
rclavicle -1.9133e-014 -3.65764e-014
rhumerus -25.6238 -3.24661 -77.9771
rradius 32.8568
rwrist 3.20871
rhand -16.3584 8.40553
rfingers 7.12502
rthumb 9.85436 -21.3439
lclavicle -1.9133e-014 -3.65764e-014
lhumerus -36.2204 4.57578 85.5297
lradius 32.1437
lwrist -6.76506
lhand -17.5056 24.4406
lfingers 7.12502
lthumb 8.74747 54.2394
rfemur 4.45802 -5.77566 26.4944
rtibia 16.3156
rfoot -15.2716 -2.252
rtoes -7.81219
lfemur -24.2767 -1.83072 -16.7404
ltibia 18.6535
lfoot -9.54618 14.2756
ltoes -11.0872
1863
root 15.5047 17.9745 1.16678 721.932 -191.155 365.159
lowerback 10.4264 1.60645 5.54028
upperback 0.567971 3.0744 2.16812
thorax -5.09282 1.48178 -1.29745
lowerneck -19.05 -4.83348 -9.47906
upperneck 33.153 -3.50655 4.87923
head 15.0625 -1.31846 3.22435
rclavicle 1.74931e-014 4.21423e-014
rhumerus -25.4418 -3.51008 -77.8072
rradius 33.0135
rwrist 3.15012
rhand -16.1213 8.51608
rfingers 7.12502
rthumb 10.0832 -21.2223
lclavicle 1.74931e-014 4.21423e-014
lhumerus -36.1743 4.73895 85.5867
lradius 31.9961
lwrist -7.0429
lhand -17.5134 24.2076
lfingers 7.12502
lthumb 8.73996 54.0067
rfemur 4.68336 -5.76746 26.5831
rtibia 16.3837
rfoot -15.4188 -2.43775
rtoes -9.19137
lfemur -24.3568 -3.78871 -16.1779
ltibia 17.8441
lfoot -10.1907 16.5575
ltoes -11.6433
1864
root 15.5205 17.9624 1.05939 722.153 -190.939 365.336
lowerback 10.241 1.63347 5.74131
upperback 0.544313 3.12506 2.20523
thorax -5.00293 1.50579 -1.37059
lowerneck -19.3296 -4.93672 -9.53287
upperneck 33.2555 -3.63177 4.91373
head 15.19 -1.375 3.22773
rclavicle -3.01656e-014 -4.45278e-014
rhumerus -25.288 -3.9835 -77.6434
rradius 33.183
rwrist 3.18451
rhand -15.9967 8.76274
rfingers 7.12502
rthumb 10.2034 -20.9698
lclavicle -3.01656e-014 -4.45278e-014
lhumerus -36.1178 4.70565 85.6799
lradius 31.8457
lwrist -7.23941
lhand -17.4858 24.0574
lfingers 7.12502
lthumb 8.76655 53.8554
rfemur 4.86042 -5.91456 26.7422
rtibia 16.3939
rfoot -15.4492 -2.43106
rtoes -9.93825
lfemur -24.5899 -3.70829 -16.0664
ltibia 17.2387
lfoot -10.7949 16.6693
ltoes -9.59554
1865
root 15.5345 17.9527 0.951776 722.37 -190.74 365.392
lowerback 10.1286 1.67078 5.81209
upperback 0.404225 3.17639 2.21163
thorax -5.08091 1.52275 -1.40842
lowerneck -19.4802 -5.01656 -9.5123
upperneck 33.4309 -3.71814 4.896
head 15.3158 -1.40521 3.20832
rclavicle -5.24792e-014 -3.69739e-014
rhumerus -25.3161 -4.38666 -77.5149
rradius 33.3189
rwrist 3.19012
rhand -15.9695 8.7779
rfingers 7.12502
rthumb 10.2295 -20.9534
lclavicle -5.24792e-014 -3.69739e-014
lhumerus -36.3323 4.52336 85.8101
lradius 31.7745
lwrist -7.10948
lhand -17.2875 24.9638
lfingers 7.12502
lthumb 8.95788 54.7537
rfemur 5.06415 -6.09274 26.7499
rtibia 16.3117
rfoot -15.4631 -2.38158
rtoes -10.3833
lfemur -24.8169 -3.63215 -16.1415
ltibia 16.8396
lfoot -11.584 16.693
ltoes -5.50789
1866
root 15.5497 17.9462 0.842394 722.562 -190.529 365.515
lowerback 10.069 1.65991 5.88252
upperback 0.196253 3.17637 2.27285
thorax -5.26678 1.51134 -1.38553
lowerneck -19.3674 -4.96234 -9.43551
upperneck 33.5415 -3.62603 4.85584
head 15.3301 -1.35097 3.20311
rclavicle 6.16232e-015 -1.55052e-014
rhumerus -25.471 -4.49642 -77.4407
rradius 33.3688
rwrist 3.05076
rhand -15.8829 8.72819
rfingers 7.12502
rthumb 10.3131 -20.9989
lclavicle 6.16232e-015 -1.55052e-014
lhumerus -36.6352 4.60513 85.8383
lradius 31.59
lwrist -7.06747
lhand -17.0738 25.7782
lfingers 7.12502
lthumb 9.16414 55.559
rfemur 5.324 -6.21896 26.828
rtibia 16.2017
rfoot -15.6111 -1.94249
rtoes -9.87289
lfemur -24.9772 -3.55372 -16.1738
ltibia 16.5866
lfoot -11.9333 16.866
ltoes -3.72094
1867
root 15.5658 17.9414 0.731961 722.681 -190.283 365.72
lowerback 10.0211 1.61473 6.02603
upperback 0.0811253 3.14318 2.3552
thorax -5.36145 1.48891 -1.3753
lowerneck -19.2668 -4.87572 -9.36457
upperneck 33.5231 -3.51619 4.84407
head 15.2843 -1.29269 3.20731
rclavicle -6.01324e-015 -4.77083e-015
rhumerus -25.5119 -4.68456 -77.3952
rradius 33.4189
rwrist 2.92094
rhand -15.7989 8.79216
rfingers 7.12502
rthumb 10.3942 -20.9309
lclavicle -6.01324e-015 -4.77083e-015
lhumerus -36.8073 4.77889 85.8067
lradius 31.232
lwrist -7.58
lhand -16.8795 25.4047
lfingers 7.12502
lthumb 9.35159 55.1773
rfemur 5.70977 -6.08906 27.0686
rtibia 16.0363
rfoot -15.8085 -1.43425
rtoes -9.42103
lfemur -25.02 -3.49597 -16.1541
ltibia 16.4934
lfoot -11.779 17.2995
ltoes -3.46182
1868
root 15.5813 17.9342 0.621689 722.714 -189.991 365.85
lowerback 10.0497 1.60751 6.15222
upperback 0.0149251 3.15844 2.38587
thorax -5.44221 1.49078 -1.41804
lowerneck -19.3015 -4.88454 -9.19892
upperneck 33.4637 -3.54477 4.69974
head 15.2579 -1.30562 3.10826
rclavicle 1.99282e-014 1.82882e-014
rhumerus -25.6333 -4.9783 -77.3617
rradius 33.7112
rwrist 2.83691
rhand -16.0704 8.17591
rfingers 7.12502
rthumb 10.1323 -21.5601
lclavicle 1.99282e-014 1.82882e-014
lhumerus -36.9729 4.61938 85.9195
lradius 30.8922
lwrist -8.24093
lhand -17.1457 25.496
lfingers 7.12502
lthumb 9.09473 55.2799
rfemur 6.17781 -5.84115 27.2834
rtibia 15.8492
rfoot -15.9273 -1.50871
rtoes -10.0245
lfemur -24.9686 -3.50145 -16.2511
ltibia 16.537
lfoot -11.5112 17.7733
ltoes -2.2015
1869
root 15.5955 17.9231 0.510182 722.682 -189.645 365.909
lowerback 10.0999 1.58591 6.19447
upperback -0.0164753 3.1481 2.44002
thorax -5.50577 1.48449 -1.3863
lowerneck -19.3543 -4.95008 -9.29537
upperneck 33.4416 -3.62642 4.7511
head 15.2721 -1.34636 3.13019
rclavicle 4.01545e-014 4.57205e-014
rhumerus -25.8283 -5.02453 -77.318
rradius 34.1691
rwrist 2.74948
rhand -16.6265 7.41952
rfingers 7.12502
rthumb 9.59569 -22.342
lclavicle 4.01545e-014 4.57205e-014
lhumerus -37.0734 4.65329 86.0204
lradius 30.7057
lwrist -8.54064
lhand -17.311 26.2109
lfingers 7.12502
lthumb 8.93521 56.0017
rfemur 6.66214 -5.65962 27.4013
rtibia 15.7633
rfoot -16.0187 -1.92754
rtoes -10.7241
lfemur -24.8759 -1.95772 -16.9173
ltibia 16.6433
lfoot -10.5859 16.685
ltoes -2.25606
1870
root 15.6089 17.9105 0.392418 722.57 -189.4 365.824
lowerback 10.0507 1.59098 6.08524
upperback 0.054855 3.13478 2.44052
thorax -5.40891 1.48553 -1.31992
lowerneck -19.3712 -4.98159 -9.3779
upperneck 33.373 -3.68808 4.8518
head 15.2545 -1.37118 3.1726
rclavicle -7.70291e-015 1.31198e-014
rhumerus -25.8448 -5.22101 -77.2896
rradius 34.385
rwrist 2.6862
rhand -16.8786 7.57439
rfingers 7.12502
rthumb 9.35247 -22.1981
lclavicle -7.70291e-015 1.31198e-014
lhumerus -36.9298 4.81486 86.0005
lradius 30.5271
lwrist -8.43832
lhand -16.9498 26.6628
lfingers 7.12502
lthumb 9.28376 56.4384
rfemur 7.17323 -5.56013 27.3097
rtibia 15.8116
rfoot -16.1968 -2.303
rtoes -12.3073
lfemur -24.6124 -1.08444 -17.5374
ltibia 16.7833
lfoot -9.899 16.2038
ltoes -2.20942
1871
root 15.6214 17.8991 0.267223 722.439 -189.391 365.71
lowerback 9.9418 1.66982 5.92752
upperback 0.154573 3.20273 2.40511
thorax -5.24361 1.52853 -1.272
lowerneck -19.4605 -4.97336 -9.23643
upperneck 33.2716 -3.7146 4.77406
head 15.222 -1.38099 3.10389
rclavicle -1.13307e-014 -4.37326e-015
rhumerus -25.8285 -5.43006 -77.2836
rradius 34.4986
rwrist 2.57234
rhand -16.6859 7.67408
rfingers 7.12502
rthumb 9.53845 -22.09
lclavicle -1.13307e-014 -4.37326e-015
lhumerus -36.8652 4.94454 85.9516
lradius 30.4435
lwrist -8.37001
lhand -16.873 26.8298
lfingers 7.12502
lthumb 9.35792 56.6021
rfemur 7.65976 -5.63012 27.0797
rtibia 15.9669
rfoot -16.3469 -2.38605
rtoes -15.2496
lfemur -24.2361 -0.33145 -18.1068
ltibia 16.9651
lfoot -9.29933 15.8731
ltoes -1.7965
1872
root 15.6315 17.8894 0.140304 722.276 -189.372 365.738
lowerback 9.9563 1.73597 5.93904
upperback 0.175547 3.29352 2.40915
thorax -5.22369 1.57444 -1.28662
lowerneck -19.4545 -5.00083 -9.10629
upperneck 33.2023 -3.78481 4.69269
head 15.1878 -1.40722 3.03018
rclavicle 1.81391e-014 1.94809e-014
rhumerus -26.0404 -5.56651 -77.2597
rradius 34.6203
rwrist 2.40252
rhand -16.5549 7.45019
rfingers 7.12502
rthumb 9.66479 -22.3081
lclavicle 1.81391e-014 1.94809e-014
lhumerus -37.0588 5.15841 85.8899
lradius 30.4315
lwrist -8.57756
lhand -17.1036 26.7849
lfingers 7.12502
lthumb 9.13538 56.5671
rfemur 8.13149 -5.7602 26.9708
rtibia 16.3126
rfoot -16.2123 -2.53892
rtoes -15.9666
lfemur -23.735 0.128017 -18.4058
ltibia 17.1208
lfoot -8.97749 15.4561
ltoes -0.922808
1873
root 15.6426 17.8785 0.0153731 722.049 -189.35 365.752
lowerback 10.0002 1.80401 5.94776
upperback 0.242132 3.38718 2.40436
thorax -5.17158 1.62399 -1.30955
lowerneck -19.3129 -5.04847 -9.25974
upperneck 33.0459 -3.91075 4.93161
head 15.1045 -1.44883 3.12905
rclavicle -2.77305e-014 -4.13472e-014
rhumerus -26.215 -5.88865 -77.2495
rradius 34.7098
rwrist 2.28607
rhand -16.5021 7.44197
rfingers 7.12502
rthumb 9.71573 -22.3139
lclavicle -2.77305e-014 -4.13472e-014
lhumerus -37.1032 5.17833 85.8708
lradius 30.2063
lwrist -8.7552
lhand -17.1748 26.6026
lfingers 7.12502
lthumb 9.06663 56.3878
rfemur 8.65196 -5.50433 26.9434
rtibia 16.7599
rfoot -15.5877 -3.09562
rtoes -13.4592
lfemur -23.1753 0.52243 -18.659
ltibia 17.2925
lfoot -8.57834 14.6766
ltoes -1.35225
1874
root 15.6514 17.8668 -0.111491 721.928 -189.441 365.751
lowerback 9.95184 1.918 5.96216
upperback 0.324184 3.52988 2.366
thorax -5.04552 1.69876 -1.37241
lowerneck -19.4143 -5.08364 -9.38858
upperneck 33.0324 -3.99849 5.16611
head 15.14 -1.47021 3.23372
rclavicle -1.73937e-014 -4.73108e-014
rhumerus -26.1934 -6.23791 -77.3157
rradius 34.7397
rwrist 2.23636
rhand -16.4447 7.40673
rfingers 7.12502
rthumb 9.77109 -22.3466
lclavicle -1.73937e-014 -4.73108e-014
lhumerus -36.9564 5.06886 85.8475
lradius 29.8264
lwrist -8.85384
lhand -16.9729 26.4238
lfingers 7.12502
lthumb 9.2615 56.2004
rfemur 8.99079 -5.15958 26.9016
rtibia 17.2459
rfoot -15.0959 -3.43679
rtoes -12.2039
lfemur -22.7013 0.587234 -18.7972
ltibia 17.4585
lfoot -8.08597 13.972
ltoes -2.06975
1875
root 15.6542 17.8652 -0.242373 721.925 -189.515 365.693
lowerback 9.86338 1.99436 5.94911
upperback 0.288625 3.61413 2.2989
thorax -5.02387 1.73708 -1.44261
lowerneck -19.4107 -5.05312 -9.31246
upperneck 33.0093 -3.97571 5.14836
head 15.1225 -1.45268 3.21655
rclavicle -1.635e-014 -3.57812e-015
rhumerus -26.3078 -6.42544 -77.3976
rradius 34.6232
rwrist 2.38356
rhand -16.5936 7.70489
rfingers 7.12502
rthumb 9.62745 -22.0551
lclavicle -1.635e-014 -3.57812e-015
lhumerus -37.0134 5.23562 85.6583
lradius 29.5262
lwrist -9.18178
lhand -16.6517 25.8157
lfingers 7.12502
lthumb 9.57136 55.5783
rfemur 9.17822 -5.06739 26.725
rtibia 17.6856
rfoot -14.797 -3.34185
rtoes -12.4527
lfemur -22.4389 0.576074 -18.9796
ltibia 17.7139
lfoot -7.36754 13.1655
ltoes -1.00653
